<?xml version="1.0" standalone="no"?>
<!DOCTYPE svg PUBLIC "-//W3C//DTD SVG 20010904//EN" "http://www.w3.org/TR/2001/REC-SVG-20010904/DTD/svg10.dtd">
<svg xmlns="http://www.w3.org/2000/svg" version="1.0" width="1000.000000pt" height="1000.000000pt" viewBox="0 0 1000.000000 1000.000000" preserveAspectRatio="xMidYMid meet">
<metadata>
Created by potrace 1.16, written by Peter Selinger 2001-2019
<meta name="Producer" content="Online-Convert"/></metadata>
<g transform="translate(0.000000,1000.000000) scale(0.100000,-0.100000)" fill="#000000" stroke="none">
<path d="M4795 8793 c-75 -10 -188 -36 -278 -64 -153 -49 -146 -33 -162 -391 -19 -416 -23 -450 -52 -532 -30 -84 -66 -140 -141 -219 -59 -63 -59 -77 2 -77 21 0 27 -3 20 -10 -6 -6 -69 -13 -142 -17 -133 -6 -160 -12 -148 -32 5 -7 53 -12 134 -13 71 -1 -23 -6 -213 -12 -298 -10 -343 -13 -366 -29 -25 -16 -27 -24 -36 -140 -6 -70 -7 -126 -2 -131 13 -14 12 -5709 -1 -5722 -7 -7 -8 -43 -4 -98 6 -73 10 -89 27 -98 23 -12 2897 -21 3047 -10 l85 7 7 40 c4 22 8 1356 10 2965 1 1623 5 2540 8 2060 l5 -865 3 840 c2 685 -1 868 -13 990 -13 130 -18 152 -36 168 -18 14 -45 17 -188 18 -91 1 -251 5 -356 8 l-190 7 145 2 c141 2 191 12 162 30 -7 5 -72 12 -144 15 -73 4 -136 11 -142 17 -7 7 -1 10 20 10 63 0 63 15 3 77 -135 141 -173 237 -183 468 -29 627 -26 609 -84 639 -57 29 -189 68 -299 86 -88 15 -156 20 -291 19 -98 -1 -190 -4 -207 -6z m-1315 -4528 c0 -1892 -3 -2856 -10 -2860 -7 -4 -10 952 -10 2860 0 1908 3 2864 10 2860 7 -4 10 -968 10 -2860z m213 2855 c34 0 47 -4 47 -14 0 -26 23 -30 41 -8 23 29 55 28 63 0 3 -13 6 -49 6 -81 0 -36 4 -56 10 -52 6 3 10 27 10 53 1 70 32 102 100 102 33 0 50 -4 51 -12 0 -10 2 -10 6 -1 3 10 70 13 281 12 152 0 295 -4 317 -8 29 -5 44 -4 53 5 9 10 72 12 294 8 156 -3 297 -5 313 -4 126 6 236 1 283 -13 42 -13 52 -13 52 -3 0 19 67 26 180 20 120 -7 140 -11 140 -29 0 -9 5 -24 12 -34 9 -14 9 -65 0 -212 -6 -107 -14 -205 -17 -219 -4 -14 3 -5 16 20 20 41 22 61 23 242 1 162 4 200 16 212 21 21 223 24 247 4 13 -10 17 -10 20 0 3 6 15 12 28 12 25 0 55 -45 55 -83 0 -36 29 1 32 41 l3 37 68 5 c38 3 71 3 73 1 2 -2 4 -1288 4 -2858 l0 -2853 -60 0 -60 0 0 75 c0 60 -3 75 -15 75 -11 0 -15 12 -15 45 0 31 5 47 15 51 11 5 15 23 15 75 0 64 -13 92 -23 51 -3 -9 -5 5 -6 31 -1 34 3 49 14 53 11 5 15 22 15 69 0 43 -5 66 -15 75 -12 10 -15 39 -15 142 0 105 3 130 15 134 8 4 15 10 15 15 0 5 -7 9 -15 9 -27 0 -15 24 25 52 l40 28 0 195 0 195 -40 52 c-52 69 -52 96 0 158 37 44 40 53 40 106 l0 59 -19 -32 c-22 -34 -102 -97 -178 -139 -26 -15 -52 -31 -58 -35 -16 -15 -11 -53 8 -68 26 -19 39 -56 48 -141 l7 -75 -4 80 c-2 44 -6 105 -10 136 -7 63 4 94 36 102 17 4 20 2 15 -11 -4 -9 -9 -39 -12 -67 -5 -43 0 -63 36 -147 47 -109 59 -178 42 -231 -16 -47 -73 -97 -111 -97 -54 0 -60 -7 -60 -71 0 -55 2 -59 23 -59 20 0 22 -4 19 -41 -3 -32 -1 -40 9 -37 8 3 15 22 17 45 3 37 6 41 35 46 40 6 43 3 29 -28 -6 -14 -8 -25 -4 -25 4 0 7 -47 7 -105 0 -74 -3 -105 -12 -105 -8 0 -13 -31 -15 -100 -2 -75 0 -100 10 -100 8 0 12 -18 12 -55 0 -43 -3 -55 -15 -55 -14 0 -16 -22 -13 -165 3 -151 2 -165 -14 -165 -16 0 -18 24 -20 327 -2 254 -6 327 -16 331 -10 3 -12 -62 -10 -327 l3 -331 -105 1 c-58 1 -97 3 -87 6 11 3 17 14 17 34 0 24 -4 29 -24 29 -42 0 -56 11 -56 41 0 22 6 30 25 35 14 3 32 3 41 0 13 -5 15 -2 10 16 -3 13 -7 75 -7 138 -1 63 -4 100 -6 82 -3 -19 -10 -32 -19 -32 -24 0 -18 70 9 98 l22 24 -37 -22 -38 -22 0 200 c0 168 2 202 15 212 9 7 14 19 11 25 -5 15 36 25 100 25 l44 0 0 59 0 58 -87 9 c-113 10 -197 11 -300 1 -71 -6 -83 -5 -83 8 0 28 77 34 307 22 109 -6 153 -5 158 3 4 6 5 13 4 15 -2 2 -92 6 -199 9 -214 7 -256 13 -296 45 -17 13 -41 21 -66 21 -37 0 -93 22 -148 60 -14 9 -43 29 -66 44 -23 15 -60 50 -82 78 -45 55 -55 58 -21 5 19 -28 61 -66 148 -134 l23 -19 -21 -34 c-11 -19 -21 -49 -21 -67 0 -17 -4 -35 -10 -38 -6 -4 -10 7 -10 25 0 20 -9 40 -25 56 -14 14 -25 34 -25 45 0 28 -46 122 -71 145 -16 14 -13 3 15 -56 43 -90 45 -110 11 -110 -22 0 -25 3 -19 24 8 33 -14 78 -83 175 -34 46 -66 101 -72 123 -13 42 -19 45 -47 22 -10 -8 -13 -13 -6 -9 9 5 12 -33 12 -173 l0 -180 -40 10 c-44 11 -43 10 -41 102 2 65 9 85 22 65 5 -9 9 18 9 68 0 76 -1 81 -20 76 -10 -3 -35 5 -55 17 l-35 22 0 -34 c0 -42 -16 -72 -79 -148 -61 -73 -72 -93 -73 -130 -1 -22 -7 -29 -27 -33 -37 -8 -45 6 -26 44 l16 34 -20 -25 c-11 -14 -21 -31 -21 -37 0 -10 -24 -13 -85 -13 -47 0 -85 2 -85 4 0 5 98 66 106 66 4 0 1 -7 -6 -15 -20 -24 -5 -18 16 7 12 14 14 18 4 13 -8 -5 5 10 30 33 25 23 37 39 28 36 -12 -4 -17 1 -20 19 -3 23 -4 23 -25 -10 -22 -33 -22 -33 -1 -22 49 26 2 -12 -59 -48 -122 -72 -149 -83 -208 -83 -42 0 -55 -4 -55 -15 0 -19 -56 -33 -172 -44 -158 -15 -389 3 -373 29 3 5 -4 14 -15 20 -16 9 -20 8 -20 -5 0 -8 -9 -15 -21 -15 -26 0 -16 -16 24 -37 27 -14 74 -18 287 -24 278 -7 360 -18 360 -50 0 -23 3 -23 -51 -2 -37 15 -88 18 -336 20 l-293 2 0 -44 c0 -36 4 -45 21 -50 15 -5 18 -9 9 -15 -9 -6 -9 -13 -1 -28 14 -27 14 -195 0 -209 -7 -7 -8 -47 -5 -114 7 -125 7 -115 0 -360 -6 -228 6 -209 -129 -208 -44 1 -72 3 -62 6 16 4 17 26 17 281 -1 233 -3 274 -14 259 -7 -9 -17 -17 -21 -17 -4 0 -6 112 -4 249 2 137 7 247 12 244 4 -2 7 -17 7 -34 0 -16 5 -29 10 -29 6 0 10 9 10 20 0 11 5 20 10 20 6 0 10 91 10 253 -1 271 2 259 -45 192 -12 -18 -14 -10 -14 68 l-1 88 28 -21 27 -22 3 55 c2 44 -2 67 -23 106 -31 63 -31 105 0 204 23 71 25 93 25 260 0 148 -3 191 -17 230 -17 46 -17 50 0 62 18 13 24 45 8 45 -12 0 -13 88 -1 95 6 4 10 22 10 41 0 30 -4 37 -30 47 -26 10 -30 17 -30 48 0 19 3 38 6 42 12 12 34 -6 34 -29 0 -13 5 -24 10 -24 6 0 10 18 10 40 0 22 -4 40 -10 40 -12 0 -11 81 2 97 5 6 4 30 -3 58 -9 36 -9 49 0 54 8 5 2 19 -19 46 -28 35 -30 44 -30 117 0 75 1 78 19 68 26 -14 38 -13 23 2 -16 16 -15 85 1 91 6 3 0 6 -15 6 l-28 1 0 1179 0 1180 28 4 c15 3 43 3 62 1 19 -2 56 -4 83 -4z m-256 -4282 c-1 -788 -2 -146 -2 1427 0 1573 1 2218 2 1433 2 -784 2 -2071 0 -2860z m3133 1427 c0 -1897 -3 -2855 -10 -2855 -7 0 -10 958 -10 2855 0 1897 3 2855 10 2855 7 0 10 -958 10 -2855z m-2129 -1735 c17 -10 19 -23 19 -155 l0 -145 -25 -6 c-14 -4 -29 -4 -32 0 -3 3 -6 60 -7 126 -1 104 -3 120 -18 120 -20 0 -42 56 -25 64 22 8 68 6 88 -4z m299 -30 l0 -30 -85 0 -85 0 0 -30 0 -30 64 0 c55 0 69 -4 95 -26 41 -34 44 -92 6 -129 -23 -23 -31 -25 -130 -25 l-106 0 3 28 c3 27 4 27 93 32 88 5 90 6 90 30 0 25 -1 25 -92 28 l-93 3 0 89 0 90 120 0 120 0 0 -30z m314 8 c23 -32 23 -240 0 -262 -20 -20 -213 -23 -232 -4 -8 8 -12 53 -12 134 0 156 -2 154 130 154 91 0 100 -2 114 -22z m298 5 c10 -9 18 -29 18 -45 0 -23 -4 -28 -25 -28 -14 0 -33 9 -42 20 -22 25 -117 29 -130 6 -4 -8 -20 -18 -35 -21 -26 -7 -28 -5 -28 23 0 52 20 62 127 62 76 0 100 -4 115 -17z m302 1 c9 -8 16 -29 16 -45 0 -27 -2 -29 -27 -23 -16 4 -33 13 -39 20 -7 9 -32 14 -67 14 -46 0 -58 -4 -67 -20 -6 -12 -21 -20 -35 -20 -21 0 -25 5 -25 29 0 52 20 61 130 61 76 0 102 -4 114 -16z m-869 -66 c8 -27 10 -206 2 -201 -5 3 0 -12 11 -33 10 -22 22 -52 25 -69 6 -26 5 -28 -6 -11 -34 52 -61 77 -79 73 -31 -8 -31 12 0 38 35 29 47 77 29 113 -17 37 -83 72 -134 72 -61 0 -53 18 10 23 115 8 138 7 142 -5z m309 -94 c3 -49 8 -97 12 -107 8 -22 43 -37 85 -37 39 0 38 -24 -2 -58 -18 -14 -38 -41 -46 -60 -13 -32 -15 -33 -28 -16 -10 13 -6 -13 11 -76 22 -84 23 -96 9 -106 -8 -6 -15 -14 -15 -18 0 -11 18 -6 35 10 10 10 24 14 40 10 23 -6 25 -11 25 -61 0 -54 0 -55 30 -55 23 0 30 -4 30 -20 0 -15 -7 -20 -27 -20 -22 0 -25 -2 -13 -10 8 -5 26 -10 40 -10 25 0 25 0 22 77 -4 65 -2 79 14 90 17 12 17 13 -4 13 -20 0 -22 -5 -22 -55 0 -54 0 -55 -30 -55 -30 0 -30 1 -30 55 0 50 2 56 26 65 112 43 263 205 264 283 0 14 10 17 59 17 52 0 62 3 80 26 12 15 21 37 21 50 0 23 3 24 68 23 37 -1 92 -4 121 -7 l55 -7 -52 -43 c-53 -45 -63 -70 -37 -92 13 -10 19 -10 33 2 36 31 37 29 32 -105 -3 -99 -5 -114 -8 -59 l-3 72 -33 0 c-17 0 -40 -6 -50 -13 -17 -13 -18 -18 -6 -68 7 -30 23 -83 36 -118 13 -35 24 -72 24 -82 0 -21 11 -24 26 -9 7 7 9 1 6 -19 -3 -20 -8 -28 -18 -24 -10 4 -14 -3 -14 -21 0 -38 -23 -78 -66 -115 -30 -27 -43 -32 -74 -29 -34 3 -36 2 -26 -15 8 -13 8 -20 -2 -26 -9 -5 -6 -11 11 -20 26 -14 57 -60 57 -85 0 -13 -12 -16 -69 -16 l-69 0 -4 51 c-3 46 0 52 20 60 34 13 28 39 -9 39 -17 0 -40 5 -51 11 -19 10 -20 9 -15 -12 4 -13 7 -34 7 -47 0 -19 4 -22 21 -17 19 6 20 3 17 -37 l-3 -43 -632 -3 -633 -2 0 55 c0 30 -4 55 -10 55 -5 0 -10 -22 -10 -48 0 -54 -7 -67 -27 -51 -18 15 -17 74 2 89 22 18 18 30 -10 30 -51 0 -125 91 -125 155 0 29 2 28 -54 14 -39 -10 -42 -13 -38 -38 2 -15 -1 -77 -7 -136 -9 -86 -8 -110 1 -117 9 -5 8 -8 -4 -8 -16 0 -18 16 -20 147 l-3 146 -27 4 -27 4 -4 -93 -3 -93 -2 98 -2 99 -37 14 -38 15 -2 139 c-3 135 -2 139 19 146 13 4 24 2 26 -4 2 -6 9 -9 17 -6 19 8 6 44 -15 44 -41 0 -50 11 -50 60 0 46 2 49 30 55 25 5 30 12 30 35 0 16 3 35 6 44 4 11 -2 17 -23 22 -44 10 -50 18 -23 25 45 13 80 10 80 -6 0 -9 9 -15 25 -15 16 0 25 6 25 16 0 14 15 16 138 11 75 -3 146 -7 157 -10 11 -3 28 -6 38 -6 13 -1 17 -10 17 -46 l0 -45 45 0 c36 0 45 4 46 18 0 13 2 12 9 -6 6 -13 6 -32 0 -48 -25 -65 -7 -117 65 -183 53 -49 165 -104 191 -94 11 4 22 -1 30 -12 11 -15 16 -16 29 -5 8 7 29 15 46 19 26 5 35 15 51 56 12 28 26 70 32 95 14 51 36 62 68 33 20 -18 20 -17 17 7 -3 21 -8 24 -34 21 -16 -1 -39 -8 -49 -13 -17 -9 -24 -5 -48 25 -16 20 -35 34 -41 31 -8 -3 -19 11 -27 33 -8 21 -16 41 -18 45 -2 4 11 0 28 -8 23 -12 54 -15 121 -12 121 4 129 13 129 146 0 118 9 116 14 -4z m576 -68 c-5 -22 -15 -43 -22 -47 -21 -14 -212 -11 -226 3 -7 7 -12 27 -12 45 0 28 4 33 24 33 13 0 29 -6 35 -14 17 -20 109 -30 128 -14 14 11 74 36 80 33 1 0 -2 -18 -7 -39z m-507 19 c9 -8 40 -18 70 -21 49 -6 56 -4 66 15 8 14 21 21 41 21 26 0 30 -4 30 -26 0 -59 -11 -64 -128 -64 -120 0 -132 5 -132 57 0 26 4 33 19 33 11 0 26 -7 34 -15z m-568 -106 c4 -5 19 -7 35 -4 22 5 32 0 52 -23 l24 -29 18 31 18 31 23 -29 c13 -16 28 -49 34 -73 21 -81 -34 -152 -95 -124 -21 9 -25 16 -19 34 3 12 9 45 11 72 l5 50 -16 -34 c-8 -18 -15 -39 -15 -46 0 -24 -27 -37 -49 -25 -17 9 -21 20 -21 60 0 52 -13 67 -24 28 -5 -19 -8 -20 -15 -8 -9 12 -6 51 5 88 4 15 20 16 29 1z m624 -96 c6 -21 15 -71 18 -110 6 -79 3 -84 -50 -64 -30 12 -52 69 -44 117 6 34 41 94 56 94 4 0 13 -17 20 -37z"/>
<path d="M4322 6721 c-30 -34 -96 -159 -108 -206 -12 -48 -23 -24 -30 65 -7 90 -15 108 -56 123 -30 10 -28 -6 2 -24 25 -16 30 -25 30 -58 0 -50 19 -186 29 -214 8 -19 10 -16 21 23 16 63 82 201 120 254 41 57 35 84 -8 37z"/>
<path d="M5736 6703 c-3 -3 1 -11 10 -18 14 -10 15 -23 4 -121 -7 -70 -8 -118 -2 -134 6 -15 6 -38 -1 -60 -15 -56 -2 -168 23 -195 13 -14 17 -25 11 -29 -5 -4 -17 4 -25 16 -9 12 -19 18 -23 14 -4 -4 -1 -11 6 -15 7 -5 10 -14 7 -20 -4 -6 0 -11 8 -11 9 0 15 -5 14 -12 -2 -7 24 -27 57 -44 33 -18 70 -44 82 -59 31 -35 31 -95 1 -129 -34 -38 -45 -35 -70 13 -40 76 -58 81 -315 81 l-221 0 10 37 c5 20 7 68 4 107 -4 39 -7 84 -6 101 l0 29 -37 -37 c-38 -38 -40 -57 -4 -38 18 10 21 8 27 -16 3 -16 8 -34 10 -42 3 -8 0 -38 -6 -68 -13 -59 -29 -73 -84 -73 -30 0 -35 4 -41 29 -3 16 -1 48 6 70 7 23 10 43 7 46 -2 3 -26 -2 -51 -11 -38 -13 -47 -20 -47 -39 0 -12 -7 -28 -15 -35 -8 -7 -12 -16 -9 -21 10 -17 -7 -68 -24 -72 -9 -3 -4 -5 11 -6 31 -1 68 -17 79 -35 4 -6 8 -30 8 -53 0 -55 -26 -83 -77 -84 -21 -1 -30 -3 -20 -6 15 -4 18 -12 15 -39 l-4 -34 43 0 c44 0 58 -9 97 -65 10 -15 37 -35 59 -45 36 -16 43 -17 84 -3 48 17 78 52 70 83 -5 19 0 20 61 20 l67 0 -2 -97 -1 -97 -79 -39 c-149 -75 -195 -135 -160 -204 29 -56 123 -126 207 -155 20 -6 18 -7 -12 -4 -227 27 -267 29 -348 19 l-85 -10 77 -2 c42 0 79 -4 81 -8 3 -5 7 -24 9 -43 l3 -35 -65 -11 -65 -11 72 -4 c61 -4 77 -9 100 -31 15 -14 52 -38 82 -53 l54 -27 -6 39 c-3 21 -9 47 -13 57 -6 16 -4 18 10 13 10 -4 34 -7 53 -7 31 0 34 -2 23 -15 -11 -13 -9 -20 10 -40 13 -14 30 -27 39 -30 12 -4 16 -18 16 -60 0 -54 -1 -55 -25 -50 -43 9 -322 7 -365 -3 l-40 -10 60 -1 60 -1 0 -40 0 -40 -54 -11 c-43 -9 -55 -8 -62 3 -6 8 -9 9 -9 1 0 -6 12 -26 28 -44 21 -25 23 -31 9 -26 -11 4 -31 10 -45 13 -25 5 -25 4 -9 -9 9 -8 17 -17 17 -20 0 -3 -8 -8 -17 -10 -10 -3 -2 -5 17 -6 19 0 55 -9 80 -19 43 -16 45 -18 45 -59 0 -42 -1 -43 -40 -48 -22 -3 -65 -9 -95 -14 l-55 -9 68 -1 c37 0 67 -3 67 -6 0 -2 -10 -23 -21 -45 -30 -57 -20 -57 21 0 l35 49 78 0 c91 -1 90 5 26 -122 -22 -43 -39 -83 -37 -89 2 -6 30 20 62 58 84 101 140 144 185 143 20 0 30 -3 24 -6 -8 -3 -13 -22 -13 -47 0 -23 -6 -48 -12 -56 -10 -10 -8 -10 8 1 38 26 94 78 94 89 0 13 74 13 159 -1 65 -11 67 -12 63 -38 -3 -20 8 -40 43 -84 26 -31 52 -57 57 -57 10 0 3 31 -18 72 -17 33 -17 38 -1 38 7 0 23 -13 35 -30 27 -36 44 -39 41 -7 -1 12 -1 32 -1 44 l2 22 67 -20 c38 -10 72 -19 77 -19 20 0 -16 28 -51 39 -37 12 -38 13 -34 58 2 36 -1 50 -20 71 l-24 27 24 -20 24 -20 -6 23 c-5 21 -4 21 31 -6 53 -41 62 -45 62 -29 0 7 -20 28 -45 46 -49 35 -59 57 -22 47 74 -21 67 -26 67 58 0 74 -1 77 -27 87 -16 6 -49 13 -75 16 -41 5 -48 9 -48 27 1 13 14 29 33 41 41 26 47 69 17 108 -29 37 -38 34 -43 -15 -3 -42 -4 -42 -5 8 -2 44 1 52 18 57 11 3 20 11 20 17 0 7 -8 10 -20 7 -11 -3 -20 -1 -20 4 0 5 11 9 23 9 30 0 45 -31 53 -108 7 -71 21 -110 45 -122 10 -6 20 -10 23 -10 10 0 6 189 -4 195 -5 3 -10 26 -10 50 0 24 5 47 10 50 12 7 14 85 2 85 -23 0 -72 -75 -72 -110 0 -13 -5 -20 -12 -18 -9 3 -13 27 -13 70 0 54 -5 72 -27 106 -52 78 -140 122 -273 137 -104 11 -154 25 -148 41 3 8 11 14 19 14 28 0 13 19 -22 29 -49 14 -90 4 -115 -28 -25 -32 -20 -70 16 -113 25 -30 34 -82 15 -93 -18 -11 -70 29 -90 70 -48 100 -3 200 111 248 55 22 108 74 114 111 4 20 1 47 -9 69 l-15 37 47 0 c26 0 58 3 71 7 21 5 23 3 18 -16 -8 -30 8 -69 41 -104 39 -41 74 -57 130 -57 69 0 121 41 164 128 30 60 33 75 33 157 0 79 -4 97 -29 148 -38 79 -99 119 -223 148 -56 12 -93 26 -93 33 0 22 11 25 45 10 19 -8 47 -14 62 -14 59 0 123 64 123 122 0 21 -1 21 -19 -7 -50 -84 -131 -109 -189 -60 -43 36 -56 75 -50 150 9 102 68 172 114 135 11 -10 18 -10 26 -2 19 19 55 14 87 -14 29 -24 31 -25 31 -6 0 40 -86 86 -115 62 -7 -6 -22 -11 -32 -10 -39 4 -55 -1 -79 -27 -13 -14 -26 -24 -28 -22 -2 2 3 51 10 109 8 58 12 115 9 126 -5 22 -28 38 -39 27z m317 -724 c22 -25 40 -61 48 -91 23 -100 -7 -245 -63 -305 -12 -13 -25 -23 -28 -23 -4 0 -8 104 -8 230 -1 128 3 230 8 230 4 0 24 -18 43 -41z m-645 -47 c6 -1 12 -15 12 -30 0 -21 -7 -32 -25 -40 -33 -15 -35 -15 -35 3 0 12 -13 15 -60 15 -48 0 -60 -3 -60 -16 0 -13 9 -15 48 -12 42 3 47 1 50 -19 3 -21 -1 -23 -41 -23 -27 0 -48 5 -51 13 -3 6 -4 1 -3 -13 2 -25 3 -25 85 -21 l82 3 0 -31 0 -31 -115 0 -115 0 0 98 c0 54 2 101 4 103 4 4 198 5 224 1z m270 -14 c7 -7 12 -33 12 -60 0 -51 -15 -68 -61 -68 l-22 0 21 -23 c29 -31 28 -37 -7 -37 -24 0 -36 9 -63 46 l-33 47 -3 -47 c-3 -44 -5 -46 -33 -46 l-29 0 0 100 0 100 103 0 c67 0 107 -4 115 -12z m62 -689 c52 -11 96 -22 98 -24 3 -2 4 -52 3 -110 -2 -75 2 -111 11 -122 10 -12 3 -11 -27 4 -22 11 -58 26 -80 33 -58 18 -58 18 -26 57 40 48 30 60 -22 25 -78 -53 -77 -54 -77 58 0 75 3 100 13 100 7 0 55 -9 107 -21z m38 -329 l63 -27 2 -106 c1 -59 0 -106 -3 -105 -3 2 -29 12 -58 22 -29 11 -52 23 -52 26 0 4 18 35 41 70 22 34 38 64 35 67 -2 2 -32 -23 -66 -56 -65 -65 -70 -67 -101 -51 -17 10 -19 22 -19 109 l0 99 47 -10 c26 -6 75 -23 111 -38z m-288 -246 c44 -6 45 -7 45 -41 l0 -35 -130 6 c-71 3 -150 6 -175 6 -32 1 -53 8 -75 25 -16 13 -26 27 -22 31 19 19 229 24 357 8z"/>
<path d="M4331 6469 c-34 -47 -55 -97 -91 -224 l-27 -90 -51 0 c-61 1 -67 -10 -14 -24 69 -20 86 -11 98 48 7 33 24 53 24 27 0 -22 49 -76 69 -76 31 0 32 13 1 32 -17 10 -35 30 -40 44 -23 60 -4 173 41 235 20 28 33 69 22 69 -1 0 -16 -18 -32 -41z"/>
<path d="M4458 6504 c-10 -10 36 -51 66 -58 l29 -7 -7 -84 c-6 -73 -4 -91 13 -131 12 -25 18 -50 16 -55 -3 -4 -22 -11 -42 -15 -31 -6 -39 -3 -55 16 -18 22 -18 22 -18 1 0 -24 27 -41 65 -41 27 0 27 -1 21 -44 -9 -58 18 -90 69 -84 27 3 32 1 23 -9 -8 -10 -57 -13 -197 -13 -182 0 -187 -1 -223 -25 -45 -30 -74 -97 -64 -149 14 -73 85 -126 169 -126 42 0 43 -1 39 -28 -2 -15 1 -52 6 -82 6 -30 9 -57 7 -58 -2 -2 -38 3 -79 12 -74 15 -136 40 -136 53 0 4 12 20 27 35 l27 28 -26 0 c-33 0 -106 -54 -114 -84 -8 -32 8 -60 72 -128 79 -83 78 -84 -55 -69 -100 12 -164 -4 -208 -53 -29 -32 -33 -42 -33 -93 0 -81 22 -113 114 -165 42 -24 75 -50 76 -58 0 -25 -53 -100 -70 -100 -9 0 -49 11 -89 25 -41 14 -76 23 -80 20 -7 -7 67 -79 89 -87 8 -2 10 -9 6 -16 -5 -9 -13 -6 -27 12 -16 21 -26 24 -60 21 -41 -4 -120 -44 -88 -45 13 0 16 -25 17 -199 2 -165 -1 -201 -13 -211 -17 -14 -21 -55 -5 -45 15 9 12 -38 -2 -54 -11 -11 -10 -13 5 -8 14 5 17 0 17 -38 0 -26 -5 -45 -11 -45 -8 0 -9 -21 -4 -69 5 -46 3 -71 -4 -75 -16 -10 -13 -26 3 -20 12 5 15 -10 14 -89 -1 -79 3 -101 20 -130 l20 -35 -26 -53 c-47 -95 -30 -243 32 -285 15 -9 29 -15 31 -12 2 2 -10 31 -26 63 -28 55 -30 66 -26 140 4 89 28 151 61 161 12 3 49 17 83 30 34 13 72 24 85 25 13 0 17 3 10 6 -22 9 -134 -17 -169 -39 l-33 -20 0 23 c0 12 8 31 18 42 16 19 16 19 -4 13 -16 -5 -24 1 -37 29 -23 47 -22 58 9 95 20 23 25 38 21 58 -4 21 -1 31 14 40 17 11 19 9 19 -19 l0 -30 44 36 c26 21 43 42 40 50 -4 9 9 21 35 34 55 29 63 27 60 -13 -2 -19 0 -38 4 -42 4 -4 7 13 7 38 0 33 5 48 16 52 24 9 92 -12 162 -51 35 -19 66 -33 69 -29 3 3 -6 23 -21 44 -42 61 -35 72 54 98 14 4 30 13 35 21 13 17 50 26 224 52 l133 21 29 -20 c15 -12 40 -35 54 -53 21 -25 24 -27 14 -7 -7 14 -23 39 -36 56 l-24 32 33 5 c18 3 79 9 136 13 56 4 105 11 108 15 3 5 -2 9 -10 9 -13 0 -16 12 -16 55 0 33 -4 55 -11 55 -7 0 -10 -19 -7 -53 l3 -54 -144 -17 c-79 -9 -145 -15 -148 -12 -10 9 8 25 35 31 15 3 43 15 62 26 44 27 24 41 -47 32 -36 -4 -53 -2 -53 5 0 16 59 30 203 45 70 8 131 17 134 21 13 12 -88 5 -206 -15 -67 -11 -127 -19 -134 -16 -7 2 13 14 43 26 50 20 43 22 -17 5 -22 -6 -23 -4 -23 55 0 58 1 61 28 67 54 12 46 14 -38 10 l-85 -5 -48 41 c-27 22 -50 38 -53 35 -3 -3 4 -24 16 -47 12 -23 19 -44 16 -47 -5 -5 -153 -43 -168 -43 -5 0 -8 42 -8 94 l0 94 40 32 c30 24 57 34 122 45 46 8 121 21 168 30 47 8 138 19 204 25 65 6 126 15 135 20 14 8 14 9 -1 10 -10 0 -18 7 -18 15 0 8 -5 15 -11 15 -6 0 -9 -6 -6 -14 4 -10 -23 -17 -118 -30 -182 -24 -177 -25 -173 27 l3 42 67 13 c62 12 68 12 86 -6 26 -26 83 -35 131 -22 49 13 59 27 35 45 -11 9 -14 14 -6 15 6 0 12 4 12 10 0 5 -28 8 -62 7 -60 -2 -67 0 -133 45 -38 26 -72 42 -74 37 -2 -6 11 -28 28 -49 17 -21 31 -43 31 -48 0 -12 -77 -32 -123 -32 -18 0 -99 -18 -180 -40 -80 -22 -149 -40 -152 -40 -4 0 -2 7 5 15 10 12 10 19 2 27 -28 28 -13 38 46 32 103 -11 204 32 241 103 11 21 20 31 21 22 0 -8 -6 -23 -13 -33 -17 -23 -10 -76 10 -76 12 0 14 18 12 103 -2 56 -2 162 0 236 l3 134 -28 23 c-38 31 -51 30 -52 -3 0 -43 16 -66 43 -60 20 3 23 1 15 -13 -5 -9 -7 -26 -4 -37 3 -11 2 -36 -4 -54 -6 -24 -5 -43 4 -64 21 -49 15 -64 -6 -16 -11 23 -49 81 -85 127 -76 97 -115 169 -115 213 l0 31 236 0 236 0 -51 -46 c-56 -51 -78 -100 -67 -156 8 -46 70 -118 101 -118 22 0 23 3 27 113 5 127 31 200 75 212 19 4 23 12 23 45 0 33 -3 40 -20 40 -10 0 -24 8 -29 18 -8 14 -10 10 -11 -20 0 -36 -2 -38 -30 -38 l-31 0 3 103 3 102 25 -3 c14 -2 40 0 58 3 28 5 32 10 32 37 0 28 -2 30 -27 23 -16 -4 -75 -10 -132 -12 l-103 -4 31 39 c24 29 33 52 37 93 l6 54 -46 -50 c-26 -27 -54 -60 -62 -72 -17 -24 -40 -30 -46 -13 -2 6 -14 7 -35 1 -36 -10 -69 -5 -76 12 -2 7 2 41 10 77 25 119 44 265 41 310 -3 42 -2 45 26 50 16 3 31 11 34 19 4 11 -4 12 -34 7 -73 -13 -91 -24 -64 -41 12 -7 14 -45 2 -45 -4 0 -12 10 -17 23 -6 12 -21 23 -35 25 -14 2 -34 12 -46 23 -11 11 -23 17 -26 13z m397 -653 c-1 -109 -13 -121 -125 -121 -110 0 -124 12 -128 119 l-4 81 31 0 31 0 0 -70 0 -70 65 0 65 0 0 68 c0 38 3 72 7 76 4 4 19 6 33 4 25 -3 25 -4 25 -87z m-305 54 c0 -29 -42 -54 -48 -29 -3 10 -21 14 -64 14 -83 0 -72 -22 19 -35 80 -12 103 -26 103 -63 0 -52 -23 -62 -137 -62 -103 0 -103 0 -103 24 0 21 6 26 43 31 23 4 60 5 81 3 66 -5 56 19 -11 27 -95 10 -113 21 -113 65 0 20 3 40 7 43 3 4 55 7 115 7 l108 0 0 -25z m-107 -521 c91 -60 77 -157 -28 -205 -76 -35 -75 -36 -75 112 l0 132 32 -7 c18 -4 50 -18 71 -32z m-283 -120 l65 -6 0 -39 c0 -22 -1 -39 -1 -39 -1 0 -21 9 -45 20 -51 23 -92 25 -108 7 -8 -11 -5 -13 19 -9 35 5 93 -16 84 -30 -3 -5 3 -18 15 -29 11 -11 24 -32 27 -47 4 -15 14 -36 23 -47 15 -18 15 -19 -1 -6 -17 12 -18 10 -18 -37 0 -39 4 -51 17 -54 9 -2 -13 -13 -49 -24 l-65 -21 15 29 c21 42 11 122 -18 153 -13 13 -38 29 -56 35 l-34 12 0 75 0 75 33 -6 c17 -3 61 -8 97 -12z m73 -431 c-7 -2 -13 -20 -13 -39 0 -23 4 -33 11 -28 6 3 3 -8 -6 -26 -17 -33 -17 -33 7 -27 21 5 21 5 6 -7 -21 -16 -26 -96 -5 -97 6 0 3 -4 -8 -9 -31 -13 -33 -12 -27 16 5 26 4 27 -34 20 -59 -11 -87 -33 -80 -62 4 -13 3 -24 -1 -24 -5 0 -19 -3 -32 -7 -23 -6 -23 -4 -17 38 7 51 7 44 -1 128 -5 69 6 91 49 91 17 0 17 -2 -3 -30 -21 -28 -22 -31 -5 -49 21 -23 55 -31 86 -19 20 7 22 13 17 54 -4 37 -1 50 14 65 10 10 27 19 37 18 10 0 12 -3 5 -6z m-213 -108 c0 -37 -5 -50 -27 -69 -30 -26 -26 -56 7 -56 16 0 20 -7 20 -30 0 -31 -16 -45 -71 -60 l-29 -9 0 109 c0 107 0 109 28 128 26 19 49 30 65 31 4 1 7 -19 7 -44z"/>
<path d="M4790 5329 c0 -79 124 -188 202 -177 21 3 23 9 26 70 4 84 -7 92 -108 82 -65 -6 -70 -5 -94 19 -24 24 -26 25 -26 6z"/>
<path d="M6203 5133 c-9 -3 -13 -32 -13 -93 0 -96 3 -100 70 -105 47 -4 50 -5 50 -16 0 -6 -13 -8 -30 -5 -16 2 -30 0 -30 -5 0 -5 14 -12 30 -15 l30 -6 0 -94 c0 -51 -4 -95 -9 -98 -5 -3 -29 -8 -52 -11 -54 -7 -56 -10 -61 -62 l-3 -42 25 23 c17 17 43 26 83 31 l57 6 0 -76 c0 -75 -1 -76 -22 -69 -13 3 -41 17 -64 30 -22 13 -48 24 -57 24 -24 0 -21 -33 3 -48 25 -15 27 -52 3 -52 -17 -1 -17 -1 0 -14 25 -19 22 -39 -4 -31 l-22 7 22 -30 c21 -31 29 -68 11 -57 -14 9 -12 -8 3 -24 10 -11 8 -13 -13 -8 -22 5 -21 3 10 -21 85 -65 90 -75 90 -174 0 -78 3 -95 26 -134 24 -41 25 -49 19 -131 -4 -49 -4 -85 1 -80 24 23 67 194 62 245 -3 20 0 31 6 29 6 -2 12 -39 14 -85 3 -75 1 -85 -33 -150 -20 -39 -41 -72 -48 -75 -8 -3 -5 -12 10 -29 17 -18 20 -27 12 -35 -7 -7 -14 -42 -16 -80 -5 -70 -3 -76 61 -243 l25 -65 0 567 1 566 -46 41 -46 40 -1 86 c-1 47 1 85 4 85 3 0 24 16 47 36 l42 36 0 99 0 100 -47 21 c-25 11 -65 23 -87 26 -52 7 -116 46 -116 71 0 13 14 25 45 38 25 10 45 21 45 25 0 8 -55 38 -67 37 -4 0 -14 -3 -20 -6z"/>
<path d="M6190 4805 l0 -85 29 0 c16 0 31 -3 34 -7 2 -5 3 -3 1 3 -1 7 8 22 22 35 31 29 31 69 -2 108 -18 22 -35 31 -55 31 l-29 0 0 -85z"/>
<path d="M3950 3844 c-87 -29 -101 -37 -125 -78 -34 -58 -41 -120 -21 -187 22 -77 46 -96 128 -101 37 -2 64 0 62 4 -3 4 -11 8 -18 8 -7 0 -23 11 -35 24 -22 23 -23 33 -22 138 1 80 6 116 15 123 7 6 13 15 12 20 -1 6 15 15 34 21 34 12 35 11 41 -20 l6 -31 2 33 c1 24 7 35 24 42 17 7 10 9 -33 9 -30 -1 -62 -3 -70 -5z"/>
<path d="M5841 3834 c-79 -17 -93 -29 -27 -21 27 3 43 1 35 -3 -10 -7 -1 -21 34 -59 61 -65 82 -108 73 -154 -9 -47 -44 -97 -89 -126 -20 -13 -34 -28 -31 -32 6 -11 103 1 135 17 14 7 48 16 76 20 61 8 66 10 87 51 12 24 16 59 16 135 0 133 -14 161 -90 177 -66 14 -139 13 -219 -5z"/>
<path d="M6330 3465 c0 -5 7 -46 15 -90 19 -96 13 -126 -32 -176 -28 -31 -44 -40 -81 -45 l-47 -6 0 -74 c0 -92 9 -94 95 -23 75 62 97 97 105 164 8 57 -19 214 -41 242 -7 10 -14 14 -14 8z"/>
<path d="M3832 3425 c-26 -33 -27 -41 -7 -49 16 -6 22 -86 6 -86 -5 0 -15 -19 -23 -42 -17 -54 -39 -68 -76 -47 l-27 15 3 -73 c3 -69 5 -75 35 -97 36 -27 131 -76 147 -76 21 0 9 22 -25 41 -36 21 -46 39 -22 39 7 0 29 -16 48 -36 93 -96 223 -144 387 -143 84 0 102 3 85 11 -13 6 -23 17 -23 25 0 10 18 13 70 13 71 0 80 -5 58 -29 -11 -11 -8 -12 17 -7 35 8 143 59 166 78 24 20 89 108 89 121 0 7 -8 -2 -18 -18 -11 -17 -36 -43 -58 -59 -35 -26 -37 -27 -16 -5 13 15 22 38 22 57 0 29 -2 31 -18 21 -12 -8 -17 -20 -14 -35 2 -13 1 -32 -3 -41 -5 -10 -8 -21 -7 -25 2 -10 -58 -51 -65 -45 -3 4 -2 22 1 42 7 36 32 65 134 154 92 81 90 81 169 3 54 -52 76 -82 98 -135 26 -62 30 -67 42 -51 7 10 13 29 12 43 0 14 -3 20 -6 14 -2 -7 -9 -13 -15 -13 -12 0 -8 180 4 197 12 16 2 33 -20 33 -14 0 -15 -2 -3 -9 12 -8 12 -12 2 -25 -9 -11 -10 -20 -4 -28 6 -9 6 -29 -1 -57 l-12 -44 -16 24 c-28 43 -90 101 -119 111 -20 7 -26 14 -22 26 5 14 2 13 -16 -3 -19 -16 -36 -20 -95 -19 -91 2 -196 35 -386 124 -198 93 -275 119 -374 126 -81 7 -83 6 -104 -21z m195 -314 c44 -76 170 -131 270 -117 52 7 110 35 158 77 20 18 39 28 43 24 4 -4 -13 -25 -37 -46 -52 -47 -127 -71 -219 -72 -59 -1 -62 -2 -38 -14 71 -37 -28 -38 -116 -1 -41 17 -69 50 -56 64 2 2 30 -10 62 -26 58 -31 76 -36 75 -22 0 4 -26 19 -58 35 -55 26 -94 67 -114 120 -12 31 8 18 30 -22z"/>
<path d="M6000 3443 c-69 -10 -130 -31 -310 -103 -107 -43 -231 -94 -275 -114 -97 -44 -176 -49 -219 -15 -14 11 -26 16 -26 10 0 -13 29 -41 43 -41 6 0 25 -15 42 -32 17 -18 52 -45 78 -60 26 -15 56 -42 67 -60 19 -32 28 -98 13 -98 -22 0 -77 45 -120 99 -52 65 -72 78 -48 31 22 -42 73 -90 137 -128 57 -34 123 -58 113 -41 -4 5 6 9 20 9 15 0 24 4 20 10 -4 7 45 9 147 8 187 -4 237 9 306 81 87 89 109 142 123 286 6 70 13 103 24 111 48 35 -32 63 -135 47z m74 -70 c26 -75 21 -158 -13 -228 -16 -33 -36 -69 -45 -80 -16 -19 -17 -19 -13 15 3 19 12 53 21 75 22 57 20 154 -4 215 l-20 50 29 0 c26 0 31 -6 45 -47z m-78 -238 c-23 -59 -90 -117 -161 -139 -54 -17 -78 -34 -32 -23 12 3 30 0 40 -7 17 -13 17 -14 0 -21 -35 -14 -167 -17 -198 -5 -28 11 -28 13 -10 20 11 5 43 10 70 11 47 2 45 2 -22 9 -81 9 -156 43 -161 75 -4 17 -1 15 17 -7 31 -39 79 -51 190 -46 81 3 106 8 154 31 60 30 91 64 103 113 8 36 14 47 21 40 3 -3 -2 -26 -11 -51z"/>
<path d="M6135 3141 c-10 -46 -60 -117 -106 -150 -72 -53 -188 -90 -322 -106 l-122 -14 130 3 c158 4 236 25 308 86 27 22 66 45 88 51 l39 12 0 74 c0 78 -4 91 -15 44z"/>
<path d="M4790 3129 c0 -5 4 -8 9 -5 21 13 17 -24 -9 -80 -33 -73 -81 -128 -155 -180 -59 -40 -58 -56 3 -52 31 2 33 5 29 31 -3 24 3 34 37 62 56 45 107 75 130 75 16 0 17 -5 11 -47 -4 -27 -13 -63 -20 -80 -8 -18 -12 -33 -9 -33 8 0 54 104 54 123 0 9 4 17 10 17 5 0 14 -8 19 -17 8 -14 10 -15 11 -3 0 19 -53 133 -81 171 -21 29 -39 38 -39 18z"/>
<path d="M3717 2958 c11 -22 14 -46 9 -90 -5 -41 -4 -58 3 -53 7 4 11 -14 11 -52 l1 -58 35 40 c31 36 34 45 32 92 -2 43 0 53 15 57 14 3 17 -3 17 -46 0 -44 2 -49 18 -43 9 4 29 10 43 12 21 4 26 9 21 26 -2 12 -12 30 -20 40 -18 21 -133 86 -171 97 l-28 8 14 -30z"/>
<path d="M4877 2474 c-4 -4 -7 -47 -7 -95 l0 -88 44 -6 c81 -12 81 -12 81 95 l0 95 -55 3 c-31 2 -59 0 -63 -4z"/>
<path d="M5491 1873 c-14 -18 -30 -33 -34 -33 -4 0 -19 12 -33 28 -18 19 -22 21 -16 7 6 -11 20 -29 32 -40 l21 -19 34 39 34 40 1 -40 c0 -22 3 -57 6 -77 6 -36 5 -38 -20 -38 -22 0 -26 5 -26 27 0 26 -1 26 -14 8 -14 -19 -15 -19 -35 -1 -21 19 -21 19 -20 -15 0 -26 2 -30 8 -15 5 13 10 16 15 8 3 -6 13 -9 20 -6 7 3 16 -2 19 -10 5 -13 23 -16 86 -16 87 0 121 17 44 22 l-48 3 0 68 0 69 53 4 c49 4 52 3 52 -19 0 -20 -4 -23 -30 -19 -18 3 -30 0 -30 -7 0 -6 11 -11 25 -11 19 0 25 -5 25 -21 0 -17 -5 -20 -25 -17 -15 3 -25 1 -25 -6 0 -6 15 -11 33 -11 l32 0 2 63 2 62 -32 1 c-129 6 -129 6 -156 -28z"/>
<path d="M4330 1810 c0 -72 3 -90 14 -90 8 0 18 5 21 10 3 6 1 10 -5 10 -7 0 -10 25 -8 73 3 66 5 72 26 75 21 3 22 0 22 -52 0 -56 0 -56 30 -56 23 0 30 -5 30 -19 0 -11 -8 -22 -17 -24 -11 -3 -7 -5 10 -6 36 -1 34 -16 -10 -81 -44 -65 -47 -85 -17 -98 20 -10 22 -7 28 26 3 20 13 61 21 90 l16 52 89 0 c73 0 90 3 90 15 0 8 5 15 10 15 6 0 5 8 -2 20 -17 27 -28 25 -28 -5 0 -18 -5 -25 -20 -25 -17 0 -20 7 -20 39 0 21 3 53 6 70 l7 32 35 -33 c31 -29 33 -30 22 -8 -28 55 -38 60 -127 60 l-83 0 0 -55 c0 -54 0 -55 -30 -55 -30 0 -30 1 -30 55 l0 55 -40 0 -40 0 0 -90z"/>
</g>
</svg>
